<!DOCTYPE svg PUBLIC "-//W3C//DTD SVG 1.1//EN" "http://www.w3.org/Graphics/SVG/1.1/DTD/svg11.dtd">
<!-- Uploaded to: SVG Repo, www.svgrepo.com, Transformed by: SVG Repo Mixer Tools -->
<svg width="800px" height="800px" viewBox="0 0 24 24" fill="none" xmlns="http://www.w3.org/2000/svg">
<g id="SVGRepo_bgCarrier" stroke-width="0"/>
<g id="SVGRepo_tracerCarrier" stroke-linecap="round" stroke-linejoin="round"/>
<g id="SVGRepo_iconCarrier"> <g id="Iconly/Curved/Hide"> <g id="Hide"> <path id="Stroke 1" d="M6.42 17.7298C4.19 16.2698 2.75 14.0698 2.75 12.1398C2.75 8.85984 6.89 4.83984 12 4.83984C14.09 4.83984 16.03 5.50984 17.59 6.54984" stroke="#ffffff" stroke-width="1.5" stroke-linecap="round" stroke-linejoin="round"/> <path id="Stroke 3" d="M19.8498 8.61035C20.7408 9.74035 21.2598 10.9904 21.2598 12.1404C21.2598 15.4204 17.1098 19.4404 11.9998 19.4404C11.0898 19.4404 10.2008 19.3104 9.36975 19.0804" stroke="#ffffff" stroke-width="1.5" stroke-linecap="round" stroke-linejoin="round"/> <path id="Stroke 5" d="M9.76572 14.3672C9.17072 13.7782 8.83772 12.9752 8.84072 12.1382C8.83672 10.3932 10.2487 8.97518 11.9947 8.97218C12.8347 8.97018 13.6407 9.30318 14.2347 9.89718" stroke="#ffffff" stroke-width="1.5" stroke-linecap="round" stroke-linejoin="round"/> <path id="Stroke 7" d="M15.1095 12.6992C14.8755 13.9912 13.8645 15.0042 12.5725 15.2412" stroke="#ffffff" stroke-width="1.5" stroke-linecap="round" stroke-linejoin="round"/> <path id="Stroke 9" d="M19.8917 4.25L4.11768 20.024" stroke="#ffffff" stroke-width="1.5" stroke-linecap="round" stroke-linejoin="round"/> </g> </g> </g>
</svg>