<!DOCTYPE svg PUBLIC "-//W3C//DTD SVG 1.1//EN" "http://www.w3.org/Graphics/SVG/1.1/DTD/svg11.dtd">
<!-- Uploaded to: SVG Repo, www.svgrepo.com, Transformed by: SVG Repo Mixer Tools -->
<svg width="800px" height="800px" viewBox="0 0 24 24" xmlns="http://www.w3.org/2000/svg" fill="#ffffff">
<g id="SVGRepo_bgCarrier" stroke-width="0"/>
<g id="SVGRepo_tracerCarrier" stroke-linecap="round" stroke-linejoin="round"/>
<g id="SVGRepo_iconCarrier">
<path d="M11 19v-3a3 3 0 0 0-3-3H5a3 3 0 0 0-3 3v3a3 3 0 0 0 3 3h3a3 3 0 0 0 3-3zm-8 0v-3a2 2 0 0 1 2-2h3a2 2 0 0 1 2 2v3a2 2 0 0 1-2 2H5a2 2 0 0 1-2-2zm19-3a3 3 0 0 0-3-3h-3a3 3 0 0 0-3 3v3a3 3 0 0 0 3 3h3a3 3 0 0 0 3-3zm-1 3a2 2 0 0 1-2 2h-3a2 2 0 0 1-2-2v-3a2 2 0 0 1 2-2h3a2 2 0 0 1 2 2zm1-14a3 3 0 0 0-3-3h-3a3 3 0 0 0-3 3v3a3 3 0 0 0 3 3h3a3 3 0 0 0 3-3zm-1 3a2 2 0 0 1-2 2h-3a2 2 0 0 1-2-2V5a2 2 0 0 1 2-2h3a2 2 0 0 1 2 2zM2 5v3a3 3 0 0 0 3 3h3a3 3 0 0 0 3-3V5a3 3 0 0 0-3-3H5a3 3 0 0 0-3 3zm1 0a2 2 0 0 1 2-2h3a2 2 0 0 1 2 2v3a2 2 0 0 1-2 2H5a2 2 0 0 1-2-2zm6.5 11.238l-3.443 3.43-1.822-1.822.738-.738 1.084 1.088L8.762 15.5z"/>
<path fill="none" d="M0 0h24v24H0z"/>
</g>
</svg>