<?xml version="1.0" encoding="UTF-8"?>
<!DOCTYPE svg PUBLIC "-//W3C//DTD SVG 1.1//EN" "http://www.w3.org/Graphics/SVG/1.1/DTD/svg11.dtd">
<!-- Creator: CorelDRAW 2019 (64-Bit) -->
<svg xmlns="http://www.w3.org/2000/svg" xml:space="preserve" width="210mm" height="297mm" version="1.1" style="shape-rendering:geometricPrecision; text-rendering:geometricPrecision; image-rendering:optimizeQuality; fill-rule:evenodd; clip-rule:evenodd"
viewBox="0 0 21000 29700"
 xmlns:xlink="http://www.w3.org/1999/xlink"
 xmlns:xodm="http://www.corel.com/coreldraw/odm/2003">
 <defs>
  <style type="text/css">
   <![CDATA[
    .str1 {stroke:#2B2A29;stroke-width:20;stroke-miterlimit:22.9256;stroke-opacity:0.400000}
    .str0 {stroke:#2B2A29;stroke-width:20;stroke-miterlimit:22.9256}
    .fil2 {fill:#FEFEFE}
    .fil0 {fill:#2B2A29}
    .fil4 {fill:#7C3D0E}
    .fil1 {fill:#F39500}
    .fil3 {fill:#FCC200;fill-opacity:0.301961}
    .fil5 {fill:#FCC200;fill-opacity:0.301961}
    .fil7 {fill:#2B2A29;fill-opacity:0.400000}
    .fil6 {fill:url(#id2)}
   ]]>
  </style>
   <clipPath id="id0">
    <rect x="11025.72" y="9964.75" width="255.55" height="428.51"/>
   </clipPath>
   <clipPath id="id1">
    <rect x="8917.02" y="10012.43" width="304.23" height="304.22"/>
   </clipPath>
  <linearGradient id="id2" gradientUnits="userSpaceOnUse" x1="12636.43" y1="11631.17" x2="5790.58" y2="12442.52">
   <stop offset="0" style="stop-opacity:1; stop-color:#A83805"/>
   <stop offset="1" style="stop-opacity:1; stop-color:#A83805"/>
  </linearGradient>
 </defs>
 <g id="Warstwa_x0020_1">
  <metadata id="CorelCorpID_0Corel-Layer"/>
  <path class="fil0" d="M10335.33 6184.98c186.9,0 837.18,1.74 1389.17,302.25 1646.36,896.35 1324.56,4238.3 2084.8,5850.94 658.75,1397.33 2255.56,2251.56 2674.57,4774.76 371.74,2238.52 -1344.85,4591.38 -4014.05,5587.44 -2895.6,1080.55 -6472.17,533.19 -7342.9,-2310.69 -777.1,-2538.03 1892.16,-6390.13 2162.41,-7059.94 1126.88,-2792.95 562.3,-4162.36 1080.33,-5710.37 408.5,-1220.7 1584.29,-1434.39 1965.67,-1434.39z"/>
  <path class="fil1" d="M8827.63 22818.24c194.94,534.43 -709.79,1116.59 -1039.1,1308.26 -405.68,236.11 -1410.03,-380.45 -2092.36,-573.28 -1256.55,-355.12 -3159.29,-347.56 -2782.7,-1210.69 367.66,-842.63 -261.15,-1784.14 61.12,-2289.73 192.7,-302.31 1249.51,-306.86 1549.36,-628.84 457.2,-490.93 655.22,-1203.12 1137.11,-1025.12 793.19,293.01 2769.73,3331.47 3166.57,4419.4z"/>
  <path class="fil2" d="M11348.04 8767.83c580.68,138.53 694.09,502.15 694.09,973.01 0,1389.87 -785.04,755.68 -1672.26,469.21 -123.14,-39.76 -83.96,-492.96 -39.2,-640.37 137.55,-452.96 436.68,-940.37 1017.37,-801.85z"/>
  <path class="fil2" d="M8856.49 8884.34c374.86,-82.4 703.6,563.73 652.89,1020.54 -50.72,456.8 -580.7,558.14 -759.05,672.25 -178.34,114.1 -477,-475.34 -477,-881.43 0,-406.09 208.3,-728.97 583.16,-811.36z"/>
  <path class="fil3" d="M8605.69 22294.14c183.86,438.06 -669.42,915.25 -980.01,1072.36 -382.61,193.54 -1329.86,-311.85 -1973.39,-469.91 -1185.11,-291.09 -2979.66,-284.89 -2624.48,-992.38 346.75,-690.69 -246.31,-1462.43 57.64,-1876.86 181.75,-247.79 1178.47,-251.53 1461.27,-515.44 431.2,-402.41 617.96,-986.19 1072.45,-840.28 748.09,240.17 2612.25,2730.75 2986.52,3622.51z"/>
  <path class="fil2" d="M13962.69 17302.93c0,432.86 36.68,1416.79 -170.5,1381.2 -264.26,-45.4 -613.46,50.61 -744.47,346.94 -142.01,321.19 164.69,779.21 27.16,1286.44 -224.33,827.27 -1041.24,1701.43 -2535.1,1701.43 -265.89,0 -1868.22,-70.93 -2436.81,-605.74 -285.33,-268.4 727.29,-572.91 468.53,-846.48 -1549.53,-1638.3 -2240.6,-1283.84 -2113.86,-3213.09 124.36,-1892.95 2099.13,-3584.38 2009.17,-5668.61 -63.79,-1478.11 3122.43,-1748.46 3294.32,-48.86 151.13,1494.3 2201.56,3837.6 2201.56,5666.77z"/>
  <path class="fil2" d="M11381.54 8762.46c580.69,138.52 694.1,502.14 694.1,973 0,1389.88 -785.04,755.68 -1672.26,469.21 -123.15,-39.76 -83.96,-492.95 -39.2,-640.36 137.55,-452.97 436.68,-940.38 1017.36,-801.85z"/>
  <ellipse class="fil0 str0" transform="matrix(1.33829 0.524607 -0.524607 1.33829 11144.4 9949.51)" rx="213.87" ry="383.64"/>
  <ellipse class="fil4" cx="11018.67" cy="10168.26" rx="240.87" ry="206"/>
  <g style="clip-path:url(#id0)">
   <image x="11025.72" y="9964.74" width="255.55" height="428.52" xlink:href="penguin_Images\penguin_ImgID1.png"/>
  </g>
  <path class="fil2" d="M8864.71 8894.56c374.86,-82.4 703.6,563.73 652.89,1020.54 -50.72,456.8 -580.7,558.14 -759.04,672.25 -178.35,114.1 -477,-475.34 -477,-881.43 0,-406.09 208.29,-728.97 583.15,-811.36z"/>
  <ellipse class="fil0" cx="8991.11" cy="9883.39" rx="286.89" ry="589.51"/>
  <path class="fil4" d="M9167.42 10043.72c146.55,69.92 -31.74,306.18 -101.61,361.55 -271.27,214.94 -151.64,-482.21 101.61,-361.55z"/>
  <g style="clip-path:url(#id1)">
   <image x="8917.02" y="10012.42" width="304.24" height="304.23" xlink:href="penguin_Images\penguin_ImgID2.png"/>
  </g>
  <path class="fil1" d="M11932.47 10776.4c349.44,282.41 -662.08,1673.86 -2157.87,1673.86 -927.71,0 -1594.04,-1061.51 -1508.63,-1350.16 100.41,-339.37 788.44,-1049.22 1557.82,-978.15 718.8,66.41 1573.56,222 2108.68,654.45z"/>
  <path class="fil1" d="M16398.01 19017.08c428.79,87.86 316.96,793.27 669.06,1304.41 417.02,605.41 1160.03,951.07 834.39,1281.88 -413.89,420.45 -1115.95,718.99 -1665.26,1188.48 -739.28,631.87 -1357.42,1459.82 -2438.42,1420.1 -1850.96,-68 -927.52,-1641.86 -924.66,-2769.1 1.25,-496.91 -94.57,-1712.02 170.94,-2403.23 78.77,-205.06 213.32,-362.03 361.7,-442.93 175.76,-95.84 331.39,-83.82 440.02,70.52 139.98,198.9 28.09,737.28 326.92,1036.32 267.68,267.87 578.81,166.6 994.07,192.29 705.15,43.63 700.35,-987.51 1231.24,-878.74z"/>
  <path class="fil5" d="M16240.46 19305.86c382.07,70.43 282.42,635.92 596.16,1045.67 371.58,485.32 1033.64,762.41 743.48,1027.6 -368.8,337.06 -994.37,576.38 -1483.82,952.74 -658.73,506.53 -1209.53,1170.25 -2172.75,1138.41 -1649.29,-54.51 -826.46,-1316.17 -823.91,-2219.82 1.94,-688.48 -34.16,-2005.18 326.07,-2135.81 694.1,-251.71 258.15,479.37 831.91,741.5 300.89,137.47 515.75,133.55 885.77,154.14 628.32,34.97 624.04,-791.62 1097.09,-704.43z"/>
  <path class="fil6" d="M9958.33 12030.47c908.46,0 1809.71,-922.91 1809.71,-849.4 0,73.51 -825.19,1064.9 -1733.65,1064.9 -908.47,0 -1651.25,-718.81 -1651.25,-792.32 0,-73.51 666.73,576.82 1575.19,576.82z"/>
  <path class="fil7 str1" d="M9626.87 10588.53c29.99,0 19.08,-51.21 38.6,-72.39 19.22,-20.89 69.15,-11.59 69.15,-43.3 0,-118.93 -86.07,-149.06 -173.38,-84.78 -83.83,61.8 -25.55,173.37 41.63,196.28 7.95,2.71 16.02,4.19 24,4.19z"/>
  <path class="fil7 str1" d="M10273.72 10581.71c-29.98,0 -19.07,-51.2 -38.59,-72.39 -19.22,-20.88 -69.16,-11.58 -69.16,-43.29 0,-118.94 86.07,-149.07 173.38,-84.78 83.84,61.79 25.55,173.37 -41.62,196.28 -7.95,2.7 -16.03,4.18 -24.01,4.18z"/>
 </g>
</svg>
